<?xml version="1.0" encoding="utf-8"?>
<!-- Generator: Adobe Illustrator 19.0.0, SVG Export Plug-In . SVG Version: 6.00 Build 0)  -->
<svg version="1.1" id="Layer_1" xmlns="http://www.w3.org/2000/svg" xmlns:xlink="http://www.w3.org/1999/xlink" x="0px" y="0px"
	 viewBox="0 0 30.7 24.7" style="enable-background:new 0 0 30.7 24.7;" xml:space="preserve">
<style type="text/css">
	.st0{fill:#FFFFFF;}
</style>
<g id="XMLID_84_">
	<g id="XMLID_91_">
		<g id="XMLID_93_">
			<path id="XMLID_95_" d="M22.6,17.2c0.1,0.7-0.2,1.2-0.6,1.6c-0.6,0.6-1.1,0.8-2,1c-0.9,0.2-1.8,0.3-2.7,0.2
				c-0.2,0-0.4-0.1-0.6-0.1c-0.3-0.1-0.5-0.3-0.4-0.6c0-0.3,0.3-0.4,0.6-0.4c0.7,0.1,1.4,0.1,2.2,0c0.7-0.1,1.1-0.2,1.6-0.4
				c0.4,0,0.7-0.4,1-0.7c0.2-0.3,0.1-0.6-0.2-0.7c-0.3-0.1-0.5-0.3-0.8-0.3c-0.4,0-0.8,0-1.1,0c-0.9,0.1-1.8-0.1-2.7-0.3
				c-0.8-0.2-1.7-0.3-2.5-0.5c-0.4-0.1-0.8,0.1-1.1,0.3c-0.4,0.3-0.7,0.5-1.1,0.8c-0.2,0.2-0.4,0.1-0.6-0.1
				c-0.8-0.9-1.5-1.9-2.3-2.8c-0.2-0.2-0.2-0.5-0.1-0.7c0.1-0.2,0.3-0.3,0.5-0.2c0.1,0,0.2,0.1,0.3,0.2c0.6,0.8,1.3,1.6,1.9,2.3
				c0.1,0.1,0.1,0.2,0.1,0.2c0.2-0.2,0.4-0.3,0.6-0.5c0.7-0.7,1.6-0.8,2.4-0.6c1.1,0.2,2.2,0.5,3.3,0.8c0.3,0.1,0.6,0.1,1,0.1
				c0.7,0,1.4,0,2,0.1c0.1,0,0.3,0.1,0.4,0.2c0.2,0.2,0.4,0.1,0.6,0.1c0.4-0.1,0.9-0.2,1.3-0.4c0.7-0.2,1.3-0.8,1.7-1.6
				c0.2-0.4,0.5-0.8,0.8-1.2c0.3-0.4,0.7-0.7,1.2-0.8c0.9-0.2,1.7,0.7,1.5,1.8c-0.1,0.3-0.2,0.7-0.3,1c-0.3,0.7-0.6,1.5-1,2.2
				c-0.2,0.4-0.4,0.8-0.7,1.1c-1.4,1.5-2.9,2.8-4.5,3.8c-0.8,0.5-1.6,0.6-2.5,0.8c-1.9,0.3-3.9,0.2-5.8-0.1
				c-1.4-0.2-2.8-0.5-4.2-0.8c-0.4-0.1-0.8-0.3-1.2-0.5c-0.7-0.3-1.5-0.7-2.2-1.1c-0.1-0.1-0.3-0.2-0.3-0.4c0-0.1,0-0.4,0.1-0.5
				c0.1-0.2,0.3-0.2,0.5-0.1c0.8,0.4,1.7,0.7,2.5,1.2c0.8,0.4,1.5,0.5,2.3,0.7c2,0.4,4,0.7,6,0.7c1.3,0,2.5-0.1,3.8-0.5
				c0.3-0.1,0.6-0.2,0.8-0.4c1.4-1,2.7-2,3.9-3.3c0.4-0.4,0.7-0.9,0.9-1.5c0.2-0.6,0.5-1.2,0.8-1.8c0.1-0.2,0.2-0.5,0.3-0.7
				c0.1-0.5-0.2-0.8-0.5-0.6c-0.3,0.1-0.5,0.3-0.8,0.5c-0.2,0.2-0.4,0.5-0.5,0.7c-0.7,1.4-1.7,2.1-2.9,2.4
				C23.1,17,22.9,17.1,22.6,17.2z"/>
			<path id="XMLID_94_" d="M17.5,23.6c-1.1,0-2.2-0.1-3.5-0.3c-1.5-0.2-2.9-0.5-4.3-0.8c-0.3-0.1-0.7-0.2-1-0.4
				C8.7,22,8.6,22,8.5,21.9l-0.3-0.1c-0.7-0.3-1.3-0.6-2-0.9c-0.2-0.1-0.5-0.4-0.6-0.7c-0.1-0.3,0-0.6,0.1-0.9
				c0.2-0.3,0.6-0.5,1.1-0.3l0.8,0.4c0.6,0.3,1.1,0.5,1.7,0.8c0.7,0.4,1.4,0.5,2.2,0.6c2.3,0.5,4.2,0.7,6,0.7c1.1,0,2.4,0,3.6-0.5
				c0.3-0.1,0.5-0.2,0.7-0.3c1.4-1,2.7-2.1,3.9-3.2c0.4-0.4,0.7-0.8,0.8-1.3c0.2-0.4,0.3-0.8,0.5-1.1c0.1-0.2,0.2-0.4,0.3-0.7
				c0.1-0.2,0.2-0.4,0.2-0.6c0,0,0-0.1,0-0.1c-0.2,0.1-0.4,0.2-0.5,0.4c-0.1,0.1-0.3,0.4-0.4,0.6c-0.7,1.4-1.8,2.3-3.2,2.7
				c-0.1,0-0.3,0.1-0.4,0.1c0,0.7-0.4,1.2-0.7,1.5c-0.7,0.7-1.3,0.9-2.2,1.1l-0.2,0c-0.9,0.1-1.7,0.3-2.6,0.2
				c-0.2,0-0.3-0.1-0.5-0.1l-0.1,0c-0.5-0.1-0.8-0.6-0.8-1.1c0-0.3,0.2-0.5,0.4-0.6c0.2-0.1,0.5-0.2,0.7-0.2c0.6,0.1,1.3,0.1,2.1,0
				c0.7-0.1,1-0.2,1.5-0.4l0.1,0c0.2,0,0.4-0.2,0.6-0.5c0-0.1-0.1-0.1-0.2-0.1c-0.2-0.1-0.3-0.1-0.4-0.2c-0.3,0-0.7,0-1,0
				c-1,0.1-2-0.1-2.9-0.3c-0.8-0.2-1.6-0.3-2.3-0.4l-0.1,0c-0.1,0-0.4,0-0.7,0.3c-0.4,0.3-0.8,0.6-1.1,0.8c-0.3,0.2-0.8,0.3-1.2-0.2
				c-0.8-0.9-1.5-1.9-2.3-2.8c-0.3-0.4-0.4-0.8-0.1-1.2c0.2-0.4,0.6-0.6,1-0.4c0.2,0.1,0.3,0.2,0.4,0.4c0.6,0.7,1.2,1.5,1.8,2.2
				c0.1,0,0.1-0.1,0.2-0.2c0.8-0.7,1.7-1,2.8-0.7c0.6,0.1,1.2,0.3,1.9,0.4c0.5,0.1,1,0.2,1.5,0.3c0.3,0.1,0.5,0.1,0.9,0.1l0.2,0
				c0.6,0,1.3,0,1.9,0.2c0.2,0.1,0.4,0.1,0.6,0.2c0,0,0.1,0,0.2,0c0.2-0.1,0.5-0.1,0.7-0.2c0.2-0.1,0.4-0.1,0.6-0.2
				c0.6-0.2,1.1-0.6,1.5-1.3c0.2-0.4,0.5-0.8,0.8-1.2c0.4-0.5,0.8-0.8,1.4-1c0.5-0.1,1.1,0,1.5,0.4c0.5,0.5,0.7,1.2,0.6,2
				c-0.1,0.4-0.2,0.8-0.4,1.1c-0.3,0.8-0.6,1.5-1,2.2c-0.2,0.4-0.5,0.8-0.8,1.2c-1.3,1.5-2.8,2.7-4.6,3.9c-0.8,0.5-1.7,0.7-2.7,0.8
				C19.2,23.5,18.4,23.6,17.5,23.6z M6.6,20C6.6,20,6.6,20,6.6,20c0.7,0.4,1.4,0.7,2,1l0.3,0.1c0.1,0.1,0.2,0.1,0.3,0.2
				c0.3,0.1,0.5,0.3,0.7,0.3c1.3,0.3,2.7,0.6,4.2,0.8c2.1,0.3,4,0.4,5.7,0.1c0.9-0.1,1.6-0.3,2.3-0.7c1.3-0.8,2.4-1.7,3.4-2.7
				c-1,0.9-2,1.7-3.1,2.5c-0.3,0.2-0.6,0.3-1,0.5c-1.4,0.5-2.7,0.5-3.9,0.5c-1.9,0-3.8-0.2-6.1-0.7c-0.8-0.2-1.7-0.3-2.5-0.7
				c-0.5-0.3-1.1-0.5-1.7-0.8L6.6,20C6.6,20,6.6,20,6.6,20C6.6,20,6.6,20,6.6,20z M16.8,19.3l0.2,0.1c0.1,0,0.3,0.1,0.4,0.1
				c0.8,0.1,1.5,0,2.3-0.2l0.2,0c0.7-0.1,1.1-0.3,1.6-0.7c-0.2,0.2-0.5,0.3-0.7,0.3c-0.5,0.2-0.9,0.3-1.7,0.4
				C18.3,19.4,17.5,19.4,16.8,19.3z M21.8,16.6c0.1,0.1,0.2,0.2,0.3,0.3l0-0.1l0.6-0.2c0.2-0.1,0.4-0.1,0.6-0.2
				c0.7-0.2,1.2-0.4,1.7-0.9c-0.3,0.3-0.7,0.5-1.1,0.6c-0.2,0.1-0.4,0.1-0.6,0.2c-0.2,0.1-0.4,0.1-0.7,0.2
				C22.4,16.7,22.1,16.8,21.8,16.6z M14.4,15.4c-0.6,0-1,0.2-1.5,0.6c-0.1,0.1-0.3,0.2-0.4,0.3l-0.4,0.3c0.3-0.2,0.6-0.4,0.8-0.6
				c0.6-0.4,1-0.6,1.5-0.5l0.1,0c0.8,0.1,1.6,0.3,2.4,0.4c0.5,0.1,1,0.2,1.5,0.3c-0.1,0-0.2,0-0.2,0c-0.5-0.1-1-0.2-1.5-0.3
				c-0.6-0.1-1.2-0.3-1.8-0.4C14.8,15.4,14.6,15.4,14.4,15.4z M27.7,12.7c-0.1,0-0.1,0-0.2,0c-0.4,0.1-0.7,0.3-0.9,0.6c0,0,0,0,0,0
				c0.2-0.2,0.5-0.4,0.8-0.5c0.3-0.1,0.6-0.1,0.8,0.1c0,0,0,0,0,0C28.1,12.8,27.9,12.7,27.7,12.7z"/>
		</g>
		<g id="XMLID_92_">
			<path id="XMLID_214_" d="M24.6,6.9c0,2.9-2.4,5.3-5.3,5.3c-2.9,0-5.3-2.4-5.3-5.3c0-2.9,2.4-5.3,5.4-5.3
				C22.3,1.6,24.6,4,24.6,6.9z M23.6,6.9c0-2.4-1.9-4.3-4.3-4.2c-2.3,0-4.2,1.9-4.2,4.2c0,2.3,1.9,4.3,4.2,4.3
				C21.7,11.1,23.6,9.2,23.6,6.9z"/>
			<path id="XMLID_217_" d="M19.3,12.5C19.3,12.5,19.3,12.5,19.3,12.5c-3.1,0-5.7-2.6-5.7-5.7c0-1.5,0.6-2.9,1.7-4
				c1.1-1.1,2.5-1.7,4-1.7c0,0,0,0,0,0c3.1,0,5.6,2.6,5.6,5.7l-0.3,0l0.3,0c0,1.5-0.6,2.9-1.7,4C22.2,11.9,20.8,12.5,19.3,12.5z
				 M19.3,1.9c-1.3,0-2.6,0.5-3.5,1.5c-0.9,0.9-1.5,2.2-1.5,3.5c0,2.7,2.2,5,5,5c0,0,0,0,0,0c1.3,0,2.6-0.5,3.5-1.4
				c0.9-0.9,1.5-2.2,1.5-3.5C24.3,4.1,22.1,1.9,19.3,1.9C19.3,1.9,19.3,1.9,19.3,1.9z M19.3,11.5L19.3,11.5c-1.2,0-2.4-0.5-3.2-1.4
				c-0.9-0.9-1.3-2-1.3-3.3c0-2.5,2.1-4.6,4.6-4.6c0,0,0,0,0,0c1.2,0,2.4,0.5,3.2,1.3c0.9,0.9,1.3,2,1.3,3.3v0
				c0,1.2-0.5,2.4-1.3,3.2C21.7,11,20.5,11.5,19.3,11.5z M19.3,3C19.3,3,19.3,3,19.3,3c-2.2,0-3.9,1.8-3.9,3.9c0,1,0.4,2,1.1,2.8
				c0.7,0.7,1.7,1.2,2.8,1.2h0c1,0,2-0.4,2.8-1.1c0.7-0.7,1.1-1.7,1.1-2.8c0-1-0.4-2-1.1-2.8C21.3,3.4,20.4,3,19.3,3z"/>
		</g>
	</g>
	<g id="XMLID_90_">
		<polygon id="XMLID_210_" class="st0" points="8.5,19.1 6.8,22 1.7,17.6 10.2,11.7 11.8,13.6 		"/>
		<path id="XMLID_211_" d="M6.8,22.8c-0.2,0-0.4-0.1-0.6-0.2l-5.1-4.4C1,18,0.9,17.8,0.9,17.5c0-0.3,0.1-0.5,0.4-0.7L9.7,11
			c0.4-0.2,0.8-0.2,1.1,0.1l1.6,1.9c0.2,0.3,0.3,0.7,0.1,1l-3.3,5.5l-1.6,2.8c-0.1,0.2-0.3,0.4-0.6,0.4C6.9,22.8,6.9,22.8,6.8,22.8z
			 M3.1,17.6l3.5,3l1.1-1.9c0,0,0,0,0,0l3-5L10,12.9L3.1,17.6z"/>
	</g>
</g>
</svg>
