<?xml version="1.0" encoding="utf-8"?>
<!-- Generator: Adobe Illustrator 19.0.0, SVG Export Plug-In . SVG Version: 6.00 Build 0)  -->
<svg version="1.1" id="Layer_1" xmlns="http://www.w3.org/2000/svg" xmlns:xlink="http://www.w3.org/1999/xlink" x="0px" y="0px"
	 viewBox="0 0 26.1 24.7" style="enable-background:new 0 0 26.1 24.7;" xml:space="preserve">
<style type="text/css">
	.st0{fill:#FFFFFF;}
</style>
<g id="XMLID_93_">
	<g id="XMLID_95_">
		<g id="XMLID_328_">
			<path id="XMLID_272_" d="M13.4,17c0.1-0.5,0.1-0.9,0.2-1.4c0-0.1,0-0.2-0.1-0.3c-0.9-0.5-1.8-1-2.8-1.5c-0.4-0.2-0.9-0.2-1.3-0.4
				c-1.3-0.3-2.6-0.6-4-0.9c-1-0.2-1.5-1-1.3-2.1C4.6,8.9,5,7.3,5.4,5.8c0.1-0.6,0.5-1,1.1-1.1c2.5-0.6,5.1-1.2,7.6-1.8
				c1.2-0.3,2.3,0,3.3,0.7c1.4,1,2.8,2,4.2,3c0.3,0.2,0.5,0.4,0.7,0.6c0.5,0.4,0.6,1,0.5,1.6c-0.3,1.3-0.5,2.5-0.8,3.8
				c0,0.1,0,0.2,0.1,0.3c2.5,1.9,2.8,5.5,0.7,7.9c-1.2,1.4-2.7,1.9-4.5,1.8c-2.5-0.2-4.6-2.1-4.9-4.7C13.5,17.6,13.4,17.3,13.4,17
				C13.4,17.1,13.4,17,13.4,17z M21.4,12.3C21.4,12.3,21.4,12.2,21.4,12.3c0.3-1.3,0.5-2.6,0.7-3.8c0.1-0.4,0-0.7-0.3-0.9
				c-0.2-0.2-0.5-0.5-0.7-0.6c-1.4-1-2.7-2-4.1-2.9c-0.8-0.6-1.7-0.8-2.7-0.5C12.5,3.9,10.7,4.3,9,4.7C8.2,4.9,7.5,5.1,6.7,5.3
				C6.3,5.4,6.1,5.6,6,5.9c-0.4,1.6-0.7,3.1-1.1,4.7c-0.2,0.7,0.1,1.1,0.8,1.2c1.4,0.3,2.8,0.7,4.2,1c0.7,0.2,1.4,0.4,2.1,0.8
				c1.8,1,3.6,2,5.3,2.9c0.2,0.1,0.4,0.2,0.6,0.2c0.3,0,0.7,0,1,0c0.7,0,1.1-0.4,1.3-1c0.2-0.6,0-1.2-0.5-1.6
				c-1.8-1.4-3.7-2.9-5.5-4.3c-0.1-0.1-0.2-0.2-0.1-0.3c0.1-0.5,0.4-0.9,0.8-1.1c0.4-0.2,0.7-0.4,1-0.7C16,7.7,16,7.6,16.1,7.6
				c0.3-0.2,0.6-0.1,0.7,0.1c0.1,0.2,0.3,0.5,0.5,0.6C17.6,8.7,18,8.8,18.5,9C18.7,9,19,9.1,19.2,9.2c0.3,0.1,0.3,0.2,0.3,0.5
				c0,0.3-0.1,0.5-0.1,0.8c0,0.4-0.1,0.8-0.1,1.2C20,11.8,20.7,12,21.4,12.3z M18.5,12.5c0.6,0.5,1.1,0.9,1.7,1.3
				c0.4,0.3,0.7,0.8,0.8,1.3c0.1,0.8-0.3,2.1-1.4,2.3c-0.3,0.1-0.6,0.1-0.9,0.1c-0.7,0-1.3-0.1-2-0.4c-0.7-0.4-1.5-0.8-2.2-1.2
				c-0.1,0-0.2-0.1-0.2-0.1c-0.6,1.8,0,4,1.8,5.2c1.9,1.3,4.3,1.1,5.9-0.4c1.7-1.5,2-4,0.9-5.8C21.9,12.9,19.7,12.2,18.5,12.5z
				 M14.7,9.5c0.2,0.1,0.2,0.2,0.3,0.2c0.8,0.6,1.7,1.3,2.5,2c0.2,0.2,0.4,0.2,0.7,0.2c0.4-0.1,0.4-0.1,0.5-0.5
				c0.1-0.5,0.1-1,0.2-1.5c-1-0.2-1.9-0.6-2.5-1.4c-0.4,0.2-0.7,0.4-1.1,0.7C15,9.2,14.9,9.3,14.7,9.5z"/>
			<path id="XMLID_277_" d="M18.9,23c-0.2,0-0.4,0-0.5,0c-2.7-0.2-5-2.3-5.3-5.1c0-0.1,0-0.2,0-0.4l-0.1,0l0-0.1l0,0l0.1-0.4
				c0-0.2,0.1-0.4,0.1-0.6c0-0.2,0.1-0.5,0.1-0.7c-0.3-0.1-0.5-0.3-0.8-0.4c-0.6-0.3-1.2-0.7-1.8-1c-0.2-0.1-0.5-0.2-0.8-0.2
				c-0.1,0-0.2,0-0.4-0.1l-4-0.9C4.8,12.8,4.3,12.5,4,12c-0.3-0.5-0.4-1.1-0.2-1.7l0.1-0.5c0.3-1.4,0.7-2.8,1-4.2
				c0.2-0.8,0.7-1.3,1.5-1.4c2-0.5,4-1,6-1.4L14,2.4c1.3-0.3,2.5-0.1,3.7,0.7C19,4,20.3,5,21.6,5.9l0.3,0.2c0.3,0.2,0.5,0.4,0.8,0.7
				c0.5,0.5,0.7,1.2,0.6,2l-0.7,3.7c1.2,1,2,2.5,2.2,4.1c0.2,1.6-0.4,3.2-1.5,4.4C22.1,22.3,20.6,23,18.9,23z M14.7,16.5
				c-0.3,1.5,0.4,3.2,1.8,4.1c1.7,1.2,3.8,1,5.3-0.3c1.5-1.4,1.8-3.5,0.8-5.2c-0.6-1.1-1.7-1.7-2.6-2c0.2,0.1,0.3,0.3,0.5,0.4
				c0.5,0.4,0.8,0.9,1,1.6c0.2,1-0.4,2.6-1.7,2.9c-0.4,0.1-0.7,0.1-1,0.1c-0.6,0-1.4,0-2.2-0.5c-0.5-0.3-1-0.6-1.5-0.9L14.7,16.5z
				 M15.1,3.8c-0.2,0-0.5,0-0.7,0.1L6.8,5.7c-0.2,0-0.3,0.1-0.3,0.3C6.2,7.1,6,8.2,5.7,9.3l-0.3,1.4c0,0.2,0,0.4,0,0.4
				c0.1,0.1,0.2,0.2,0.4,0.2L7,11.6c1,0.2,2,0.5,3,0.7c0.8,0.2,1.5,0.4,2.2,0.8c1.6,0.9,3.2,1.8,4.8,2.7l0.5,0.3
				c0.1,0.1,0.3,0.1,0.4,0.1c0.3,0,0.6,0,1,0c0.5,0,0.7-0.2,0.9-0.7c0.1-0.4,0-0.8-0.3-1.1l-1.1-0.8c-1.5-1.1-2.9-2.3-4.4-3.5
				c-0.1-0.1-0.4-0.4-0.3-0.7c0.2-0.7,0.6-1.2,1.1-1.5c0.3-0.2,0.6-0.4,0.8-0.6c0.1-0.1,0.2-0.2,0.3-0.2C16.1,7,16.4,7,16.6,7.1
				c0.2,0.1,0.5,0.2,0.6,0.4c0.1,0.2,0.3,0.4,0.4,0.5c0.3,0.3,0.7,0.4,1,0.5l0.2,0.1c0.2,0.1,0.4,0.1,0.5,0.2c0.5,0.2,0.7,0.5,0.6,1
				l-0.2,1.5c0.4,0.1,0.8,0.2,1.2,0.3l0.1-0.5c0.2-0.9,0.3-1.8,0.5-2.7c0.1-0.3-0.1-0.4-0.1-0.5l-0.1-0.1c-0.2-0.2-0.4-0.3-0.6-0.5
				c-1.4-1-2.7-2-4.1-2.9C16.2,4,15.6,3.8,15.1,3.8z M15.5,9.5L16,9.9c0.6,0.5,1.2,0.9,1.8,1.4c0.1,0.1,0.2,0.1,0.3,0.1
				c0,0,0.1,0,0.1,0c0,0,0,0,0-0.1c0-0.3,0.1-0.7,0.1-1l0,0C17.5,10,16.8,9.6,16.2,9C15.9,9.2,15.7,9.3,15.5,9.5z"/>
		</g>
	</g>
	<g id="XMLID_94_">
		<polygon id="XMLID_268_" class="st0" points="7.5,6.1 8.6,2.9 1.6,2.1 3,12.6 5.6,12.6 		"/>
		<path id="XMLID_269_" d="M3,13.3c-0.4,0-0.8-0.3-0.9-0.7L0.8,2.1c0-0.3,0.1-0.5,0.2-0.7s0.5-0.3,0.7-0.2L8.7,2
			c0.3,0,0.5,0.2,0.6,0.4c0.1,0.2,0.2,0.5,0.1,0.7l-1,3.2l-1.9,6.4c-0.1,0.4-0.5,0.5-0.8,0.6L3,13.3C3,13.3,3,13.3,3,13.3z M2.7,3.1
			l1.1,8.6l1.2,0l1.8-5.8c0,0,0,0,0,0l0.7-2.2L2.7,3.1z"/>
	</g>
</g>
</svg>
